# xmcd CD database file
#
# Track frame offsets:
#	150
#	22383
#	42034
#	60499
#	72549
#	91678
#	128280
#	152174
#	167852
#	186426
#	209350
#	227797
#	247571
#	260120
#	281852
#
# Disc length: 4010 seconds
#
# Revision: 0
# Processed by: cddbd v1.5.1PL2 Copyright (c) Steve Scherf et al.
# Submitted via: CDex 1.51
#
DISCID=d40fa80f
DTITLE=Macchu Picchu - Kuntur Taky
DYEAR=2004
DGENRE=Ethnic
TTITLE0=INKANAN
TTITLE1=COLEGIALA
TTITLE2=SI TE CONOCI
TTITLE3=SACRILEGIO
TTITLE4=SAN JUANITOS MIX
TTITLE5=CUMBIA MIX
TTITLE6=DOMINGACHA
TTITLE7=CHOLO SOY
TTITLE8=CAPULLITO
TTITLE9=GUANTANAMERA
TTITLE10=SAN JUACUN
TTITLE11=BANDA KUNTAR
TTITLE12=TUNTUNA
TTITLE13=SANTANA MIX
TTITLE14=LA BAMBA
EXTD=YEAR: 2004
EXTT0=
EXTT1=
EXTT2=
EXTT3=
EXTT4=
EXTT5=
EXTT6=
EXTT7=
EXTT8=
EXTT9=
EXTT10=
EXTT11=
EXTT12=
EXTT13=
EXTT14=
PLAYORDER=
